<?xml version="1.0" standalone="no"?>
<!DOCTYPE svg PUBLIC "-//W3C//DTD SVG 20010904//EN"
 "http://www.w3.org/TR/2001/REC-SVG-20010904/DTD/svg10.dtd">
<svg version="1.0" xmlns="http://www.w3.org/2000/svg"
 width="488.000000pt" height="488.000000pt" viewBox="0 0 488.000000 488.000000"
 preserveAspectRatio="xMidYMid meet">
<metadata>
Created by potrace 1.14, written by Peter Selinger 2001-2017
</metadata>
<g transform="translate(0.000000,488.000000) scale(0.100000,-0.100000)"
fill="#000000" stroke="none">
<path d="M2205 4870 c-67 -7 -109 -13 -185 -26 -19 -3 -89 -19 -155 -34 -913
-219 -1625 -956 -1813 -1875 -21 -99 -24 -122 -41 -260 -11 -92 -6 -453 7
-535 6 -36 13 -82 16 -103 13 -85 40 -198 73 -307 241 -796 880 -1419 1678
-1639 250 -68 393 -86 680 -85 327 1 603 55 900 177 659 270 1179 830 1395
1502 79 248 111 442 115 705 3 238 -6 352 -46 545 -189 910 -884 1638 -1784
1867 -141 35 -131 33 -265 54 -114 18 -455 26 -575 14z"/>
</g>
</svg>
